<?xml version="1.0" encoding="utf-8"?>
<!-- Generator: Adobe Illustrator 18.0.0, SVG Export Plug-In . SVG Version: 6.00 Build 0)  -->
<svg version="1.2" baseProfile="tiny" id="Layer_1" xmlns="http://www.w3.org/2000/svg" xmlns:xlink="http://www.w3.org/1999/xlink"
	 x="0px" y="0px" viewBox="0 0 1080 1296" xml:space="preserve">
<g>
	<path d="M729.5,262.8c-2.5-2.4-3.7-6.2-3.7-11.5c0.1-11.1,5.7-16.7,16.9-16.7c6.1,0,10.3,1,12.7,3.1c2.3,2.1,3.5,6.1,3.5,12.1
		c0,5.9-1.5,10.2-4.5,12.7c-3,2.6-7.2,3.8-12.5,3.8C736.1,266.4,732,265.2,729.5,262.8z M1049.8,303.7c0,0.8-0.3,1.9-1,3.3
		c-0.6,1.4-1.2,2.7-1.8,3.8c-5.6,10.9-11.2,19.8-17,26.7c-5.8,6.9-13.2,14.4-22.2,22.3v1.8c0,8-0.5,17.1-1.6,27.3
		c-1.2,10.9-3.5,21.4-7.1,31.7c-3.5,10.3-8.7,18.8-15.6,25.5c-6.9,6.7-16,10.2-27.3,10.3c-7.7,0-13.5-2.1-17.4-6.3
		c-3.9-4.2-5.9-9.6-5.9-16.2c0-7.3,2-14.2,6-20.8c4-6.5,9.6-13.2,16.9-20c7.3-6.8,15.9-14.1,26-21.9c-0.3-9.5-0.7-18.5-1.4-27.1
		c-1.5,4-3.4,8.2-5.8,12.6c-2.4,4.4-5.3,8.2-8.8,11.3c-3.5,3.2-7.7,4.7-12.5,4.7c-6.4,0-11.7-2.1-16-6.3c-4.2-4.2-7.4-9.6-9.5-16.2
		c-1.9-6-2.9-12.3-3.1-19c-2.1,4.3-4.5,9-7.3,14.4c-3.4,6.5-7.1,12.8-11.1,18.9c-4.1,6.2-8.4,11.4-12.9,15.5
		c-4.5,4.2-9,6.3-13.4,6.3c-4.4,0-7.9-1.3-10.5-3.8c-2.6-2.5-4.5-5.8-5.6-10c-1.1-4.2-1.7-8.7-1.7-13.8c0-4.6,0.3-9,1-13.3
		c0.6-4.3,1.4-8.6,2.2-12.9c0.9-4.6,1.7-9.6,2.4-15.1c0.7-5.5,1-10.3,1-14.4c0-1.4,0-2.9-0.1-4.6c0-1.7-0.3-3.2-0.6-4.5
		c-0.4-1.3-1-2-1.8-2c-2.7,0-6,3.9-9.9,11.6c-3.8,7.8-7.6,16.7-11.2,26.7c-3.6,10.1-6.6,19-9,26.7c-1.5,4.8-3.2,8.3-5.3,10.7
		c-2.1,2.4-5.1,3.6-8.9,3.6c-5.9,0-10.5-2.1-13.7-6.4c-3.2-4.3-5.4-10.1-6.6-17.5c-1.1-7-1.7-14.9-1.8-23.5
		c-0.9,1.8-1.8,3.7-2.9,5.9c-2.1,4.4-4.5,9.2-7.1,14.5l-1.9,3.8c-3.4,6.8-7,13.8-11,21c-3.9,7.3-8.5,13.6-13.6,19.1
		c-4.1,4.5-8.8,6.7-14,6.7c-6.2,0-10.9-3.6-14.1-10.8c-3.2-7.2-5.4-17.6-6.5-31.2c-0.8-9.3-1.3-19.6-1.5-30.8
		c-1.1,2.2-2.3,4.6-3.6,7c-3.7,7.4-7.3,14.5-11,21.4c-3.8,7.6-8.5,16.4-14.1,26.4c-3.7,6.5-7.5,11.6-11.2,15.5
		c-1.5,1.6-3.3,3.1-5.4,4.6c-2.1,1.5-4.7,2.3-7.7,2.3c-4,0-7.3-1.2-9.7-3.7c-2.5-2.5-4.3-5.8-5.5-9.9c-1.2-4.2-1.8-8.8-1.8-14
		c0-7.6,0.5-15.6,1.4-24.2c1-8.5,1.9-16.5,2.9-23.8c1.4-9.4,2.1-16.1,2.2-20.1c0-2.4-0.2-4.3-0.5-5.9c-0.4-1.6-1-2.3-1.9-2.3
		c-2.3,0-4.6,2.3-6.9,6.9c-2.3,4.6-4.5,10.2-6.5,16.7c-2.1,6.5-3.8,12.9-5.3,19c-1.5,6.1-2.7,10.9-3.5,14.3
		c-0.1,0.6-0.2,1.1-0.3,1.5c-0.7,3.3-1.7,6.3-2.8,9c-1.1,2.7-2.7,4.8-4.7,6.4c-2,1.6-4.8,2.4-8.2,2.4c-3.8,0-7.1-1.8-9.9-5.4
		c-2.7-3.6-5-8.2-6.9-13.7c-1.8-5.5-3.2-11.4-4.2-17.5c-0.8-5.1-1.4-9.9-1.9-14.5c-1.3,2.5-2.6,5.3-4,8.4c-1.6,3.5-3.6,7.3-5.8,11.4
		c-1.6,3.4-3.7,7.2-6.2,11.4c-2.5,4.3-5.3,8.4-8.4,12.3c-3.1,4-6.5,7.4-10.1,10c-3.6,2.7-7.4,4.1-11.4,4.1c-5.4,0-9.6-2.5-12.7-7.4
		c-3.1-4.9-5.2-11.9-6.5-20.8c-1.2-8.1-1.8-17.5-1.9-28.1c-3.6,6-7.1,11.2-10.7,15.6c-5.8,6.9-13.2,14.4-22.3,22.3
		c-0.1,17-1.7,31.5-4.9,43.4c-3.2,12-7.3,21.7-12.5,29.1c-5.2,7.4-10.8,12.9-17,16.2c-6.2,3.4-12.3,5.1-18.3,5.1
		c-10,0-17.6-2.4-22.9-7.3c-5.3-4.9-7.9-11.4-7.9-19.7c0-6.5,2-12.3,6-17.5c4-5.2,9-9.9,15.1-14.2c6-4.2,12.2-8.2,18.6-12
		c6.8-4,12.7-7.9,17.7-11.6c-0.1-2.9-0.2-5.9-0.3-9c-0.1-13.4-0.6-26.9-1.5-40.6c-1.7,5.1-3.7,10.3-6,15.6
		c-2.2,5.3-4.8,10.2-7.7,14.7c-2.9,4.5-6.1,8.2-9.8,11c-3.7,2.8-7.7,4.2-12.1,4.2c-5.7,0-10.2-2.2-13.5-6.5
		c-3.3-4.3-5.7-9.9-7.1-16.7c-1.4-6.7-2.1-13.6-2.1-20.6c0,0.1-0.1,0.2-0.1,0.3c-2.2,4.6-5.5,11.1-9.9,19.6
		c-4.4,8.5-8.6,15.8-12.4,21.9c-3.9,6.2-8.2,11.5-12.8,15.8c-4.6,4.3-9.5,6.5-14.6,6.5c-4.5,0-8-1.7-10.6-5.1
		c-2.6-3.4-4.4-7.9-5.4-13.4c-1.1-5.5-1.6-11.5-1.6-18.1c0.1-10.3,0.9-20.1,2.5-29.5c1.6-9.3,3.1-16.4,4.7-21.2
		c-6-1.9-11.7-4.6-17.1-8.1c-1.1,2.4-2.2,4.8-3.4,7.1c-1.2,2.4-2.4,4.8-3.5,7.2c-0.5,1.1-1.1,2.5-1.9,4.2c-1.2,2.3-2.3,4.5-3.4,6.7
		c-2.7,5.6-5.8,11.5-9.2,17.7c-14.5,28.2-29.6,42.3-45.1,42.3c-11.3,0-20.1-5-26.4-15.1c-6-9.5-9.1-22.5-9.4-39.1
		c-2.5,3.2-5.2,5.9-8.1,8c-5.8,4.1-12.4,6.2-20,6.2c-4.5,0-8.5-0.8-12.1-2.3c-1.9,6.4-4.1,13.2-6.6,20.3c-2.6,7.1-5.3,13.8-8.2,20.1
		c-3,6.4-6.2,11.6-9.6,15.6c-3.5,4.1-7,6.2-10.7,6.2c-4.8,0-9-2.6-12.7-7.8c-3.8-5.2-7.2-11.8-10.1-19.9c-2.9-8-5.4-16.6-7.4-25.6
		c-2-8.7-3.4-16.9-4.4-24.8c-0.8,1.5-1.5,3.1-2.3,4.6c-3.4,7.2-7.1,14.5-11.1,21.9c-4,7.4-8.4,14.2-13.2,20.4
		c-4.8,6.3-10,11.4-15.8,15.3c-5.8,3.9-12.2,5.9-19.2,5.9c-5.4,0-10-1.6-13.8-4.9c-3.8-3.3-7-7.5-9.5-12.7C37,364.6,35,359,33.6,353
		c-2.3-8.8-3.4-18.6-3.4-29.6c0.4-9.1,1.4-17.1,3.2-23.8c1.6-6.8,4.2-12.9,7.7-18.4c3.4-5.4,7.9-9.7,13.4-12.9
		c5.6-3.2,12.4-4.8,20.4-4.8c6.4,0,11.5,2.3,15.2,6.9c3.7,4.6,5.6,11,5.6,19.2c0,7.5-3.4,14.6-10.1,21.2
		c-6.9,6.8-15.8,10.5-26.7,11.2c0,4.8,0.2,10.1,0.5,16c0.4,6,1.1,11.8,2.2,17.3c1.1,5.6,2.6,10.2,4.6,13.8c2,3.6,4.5,5.4,7.7,5.4
		c4.7-0.3,10.3-4.5,16.7-12.7c6.3-8.2,12.1-17.4,17.4-27.7c5.2-10.2,9.5-19,12.7-26.2c0.8-1.7,1.5-3.2,2-4.5c-0.1-1.5-0.1-2.8-0.1-4
		c0.3-4.1,2.7-7.2,7.4-9.3c3-1.4,6-2.1,9-2.1c1.6,0,3.2,0.2,4.8,0.5c4.7,1,7.2,4.2,7.7,9.7c0.1,2.9,0.5,8.7,1.1,17.3
		c0.6,8.7,1.6,18.1,2.7,28.2c1.1,10.1,2.4,19,4,26.4c1.6,7.5,3.2,11.2,5.1,11.2c4-6.1,7.9-14.3,11.5-24.7c3.6-10.3,6.4-19.6,8.5-28
		c-5.6-5.5-9.6-12.2-12.2-20.3c-2.7-8-4-15.8-4-23.2c0-3.4,0.5-7.3,1.5-11.8c0.9-4.4,2.6-8.2,5.2-11.5c2.5-3.2,6-4.8,10.7-4.8
		c5.6,0,9.6,2.5,12.2,7.5c2.6,5.1,3.8,12.4,3.8,21.9c0,12.3-1.8,25.7-5.5,40.2c2.9,1.5,6.2,2.2,9.9,2.2c5.8,0,11-1.6,15.3-4.8
		c4.3-3.1,7.9-7.6,10.8-13.6c1.4-3,2.6-5.4,3.4-7.3c0.1-0.4,0.1-0.8,0.2-1.3c1.1-6.6,3-12.9,5.6-18.8c2.6-5.9,6.3-10.7,10.9-14.5
		c4.6-3.8,10.5-5.7,17.6-5.7c7.8,0,13.8,2.5,18.1,7.5c4.3,5,6.4,11.8,6.4,20.3c-0.3,9.6-3.5,17.2-9.6,23c-6.1,5.7-13.9,8.7-23.4,9
		c0.1,12.5,1.5,22.6,4.1,30.3c2.6,7.7,6.3,11.5,11,11.5c8,0,17.7-10,29.1-29.9c3.7-6.3,7-12.3,9.9-18.1c1.9-3.8,3.4-7,4.7-9.5
		c0.6-1.4,1.2-2.8,1.9-4c2.4-4.7,4.7-9.4,7-14.3c0.4-0.7,0.7-1.5,1.1-2.3c-3.9-3.9-7-8.4-9.3-13.6c-2.2-5.1-3.4-10.8-3.4-17.1
		c0-5.9,0.9-10.9,2.8-14.9c1.9-4,4.3-7.1,7.2-9.1c2.9-2.1,5.9-3.1,9-3.1c3.8,0,7.2,1.4,10.1,4.2c2.9,2.8,4.4,6.9,4.4,12.4
		c0,4.9-0.9,10.4-2.6,16.5c-1.7,6.1-3.8,11.9-6.2,17.6c4.9,3.6,10.5,6.3,16.7,8.2c6.2,1.9,12.4,3.3,18.6,4.1c1.1,0.1,2,0.5,2.6,1.3
		c0.6,0.8,1,1.7,1,2.7c0,3.3-0.8,9.6-2.3,18.9c-0.3,1.2-0.5,2.4-0.7,3.7c-1,6.6-2,13.5-2.9,20.6c-0.9,7.2-1.4,13.6-1.4,19.4v1.4
		c0,4.9,0.9,7.4,2.7,7.4c2.1,0,5.4-3.6,9.9-10.8c4.5-7.2,8.8-14.7,13-22.6c4.2-7.9,7.1-13.5,8.7-16.9c2.9-5.7,5.1-10.3,6.6-13.5
		c0.2-2.7,0.5-5,0.8-7c0.5-5.3,1.9-9.2,4.2-11.6c2.2-2.5,5.8-3.7,10.8-3.7c3.7,0,7,0.7,9.7,2.1c2.7,1.4,4,3.4,4,6.1
		c0,2.3-0.4,6.4-1.1,12.3c-0.7,6.4-1.4,13.4-2.1,21c-0.4,4.5-0.5,8.6-0.5,12.5c0,2.6,0.1,5,0.3,7.3c0.5,5.6,1.9,8.4,4.4,8.4
		c2.8,0,5.5-2.3,8.1-6.9c2.6-4.6,4.9-10.3,7.1-17c2.2-6.7,4.2-13.5,6-20.2c0.5-1.8,1-3.8,1.5-6c0.7-3.7,1.7-7.2,2.9-10.8
		c1.2-3.5,3-6.5,5.3-8.8c2.3-2.4,5.7-3.6,10.1-3.6c3.5,0,6.8,0.8,10,2.5c3.2,1.7,4.8,4.3,4.8,7.9c0,10.1-0.1,20.2-0.4,30.6
		c-0.4,10.3-0.5,20.7-0.5,31.1c8-7.4,14.5-14.5,19.5-21.4c4.9-6.9,9.6-15.1,14.1-24.8c0,0,0-0.1,0-0.1c0.8-14.7,2.5-33,5.3-54.9
		c-6.1,3-12.4,5.5-19,7.4c-6.5,1.9-12.7,2.9-18.6,2.9c-5.5,0-10.6-1-15.3-3.1c-4.7-2.1-8.4-5.6-11-10.6c-0.4-0.6-0.5-1.3-0.5-1.9
		c0-0.4,0.1-0.8,0.3-1.2c0.4-1,1.1-1.8,2.1-2.3c0.6-0.4,1.3-0.5,1.9-0.5c1.6,0,2.9,0.8,3.7,2.3c1.9,3.6,4.6,6,8,7.2
		c3.4,1.2,7.1,1.9,10.9,1.9c6.8,0,13.5-1.6,20.4-4.7c6.8-3.2,13.2-6.8,19.1-10.9c0.4-2.6,1-6.8,2.1-12.7c1-5.9,2.1-12,3.3-18.2
		c1.2-6.2,2.2-11,3.1-14.4c1.3-4.4,2.9-7.3,4.9-8.8c2-1.5,4.7-2.3,7.9-2.3c6.2,0.1,9.3,3.3,9.3,9.6c0,1.3-0.3,4.1-0.8,8.4
		c-0.5,4.3-1.1,8.7-1.7,13.3c-0.5,4.1-1,7.4-1.2,10c5.3-3.6,10.7-6.6,16.2-9.1c5.5-2.5,10.7-3.8,15.6-3.8c4.6,0,8.6,1.1,12.1,3.3
		c1.8,1.1,3.4,2.4,4.9,3.9c1.3-2.6,2.7-5.2,4.1-7.6c4.3-7.2,9.4-13,15.4-17.3c6-4.3,13-6.4,21-6.4c4.6,0,8.2,1.5,11,4.6
		c2.7,3.1,4.1,7.1,4.1,12.1c0,7.2-1.6,14.7-4.7,22.5c-3.2,7.8-7.1,15.4-11.9,22.9c-4.8,7.5-9.7,14.5-14.9,21.1
		c-5.2,6.6-9.9,12.4-14.3,17.4c-0.1,5.1-0.1,10.1-0.1,14.8c0,20.7,1,38.6,2.9,53.7c1.4-6.9,3.2-14.6,5.4-23c2.2-8.4,5-16.4,8.3-24
		c3.3-7.6,7.2-13.9,11.8-18.9c4.6-5,9.9-7.5,15.9-7.5c5,0,9.1,1.2,12.1,3.6c3.1,2.4,5.3,5.6,6.6,9.7c1.3,4.1,2,8.5,2,13.4
		c0,4.8-0.5,10.5-1.5,16.9c-1,6.4-2.1,13-3.4,19.8c-1.2,6.4-2.2,12.5-3.2,18.2c-0.9,5.8-1.4,10.6-1.4,14.7c0,2.4,0.5,3.6,1.6,3.6
		c1.9,0,4.9-3.2,9-9.6c4.1-6.4,8.2-13.4,12.3-21.1c4-7.6,7.2-13.7,9.6-18.4c2.7-5.6,4.7-9.4,5.8-11.4c2.9-5.7,5.1-10.3,6.8-13.8
		c0.3-5.2,1.3-9.4,3.2-12.6c2.2-3.7,6.3-5.6,12.2-5.6c3.6,0,6.9,0.8,10.1,2.5c3.2,1.7,4.8,4.3,4.8,7.9c0,6.3-0.3,15.7-1,28.1
		c-0.6,12.4-1,24-1,34.7c0,12.1,1,18.1,2.9,18.1c2.1,0,5.8-4.5,11-13.4c4.3-7,8.6-14.7,12.9-23c5.8-11.2,9.7-19,11.8-23.4
		c3-5.9,5.2-10.4,6.7-13.6c0.4-4,0.8-7.7,1.3-11.2c0.5-5.2,1.9-9,4.2-11.5c2.2-2.5,5.8-3.7,10.8-3.7c3.7,0,6.9,0.7,9.6,2.1
		c2.6,1.4,4,3.4,4.1,6c0,3.4-0.3,7-1,11c-0.5,3.1-0.9,6.9-1.4,11.3c-0.5,4.4-0.7,9.9-0.7,16.4c0,6.9,0.1,12,0.3,15.1
		c0.2,3.1,0.7,6.9,1.5,11.4c0.3-0.8,0.5-1.7,0.8-2.6c1.4-4.7,3.1-10.3,5.3-17c2.1-6.7,4.7-13.5,7.5-20.6c2.9-7.1,6-13.7,9.5-19.9
		c3.4-6.2,7.1-11.3,11.1-15.2c4-3.9,8.2-5.9,12.5-5.9c5.4,0,9.3,2.1,11.6,6.3c2.4,4.2,3.7,9.6,4.1,16.2c0.2,2.6,0.3,5.2,0.3,7.8
		c0,4.2-0.2,8.6-0.7,13.2c-0.7,7.5-1.6,14.7-2.5,21.5c-1.4,8.7-2.1,15.3-2.1,20c0,3.7,0.4,6.6,1.2,8.9c0.8,2.3,2.1,3.4,4,3.4
		c1.9,0,4.8-3,8.6-9c3.8-6,7.6-12.7,11.4-19.9c3.8-7.3,7.2-14,10.2-20.2c2.9-5.9,5.2-10.5,6.7-13.7c0,0,0-0.1,0.1-0.1
		c2.7-7.4,6.6-13.6,11.8-18.4c5.4-5.2,12.2-7.7,20.4-7.7c6.2,0,11.4,1.5,15.5,4.5c4.1,3,7.7,6.7,10.8,11c2.9-2.9,6.9-4.4,12.1-4.4
		c2.7,0,5,0.7,6.9,2.1c1.9,1.4,2.8,3.5,2.8,6.2c0,8.8-0.3,17.6-0.8,26.4c-0.5,8.9-0.8,17.7-0.8,26.4c8-7.3,14.5-14.4,19.5-21.2
		c4.9-6.9,9.6-15.1,14.1-24.8c1.2-2.6,2.7-3.8,4.5-3.8C1048.5,299.6,1049.8,301,1049.8,303.7z M627.4,267.8
		c4.7-5.5,9.9-12,15.3-19.7c5.5-7.6,10.3-15.6,14.3-23.9c4.1-8.3,6.1-16.2,6.1-23.7c-0.2-4.7-2.2-7-6.2-7c-4.5,0-8.3,2.1-11.6,6.2
		c-3.2,4.1-6,9.3-8.2,15.6c-2.2,6.3-4,12.8-5.3,19.7c-1.4,6.9-2.4,13.3-3.1,19.2C628.2,260,627.7,264.6,627.4,267.8z M261.5,314.6
		c7.9-0.2,13.5-2.5,16.8-6.9c3.3-4.4,5-10,5-16.7c0-3.7-0.6-7.3-1.9-10.6c-1.3-3.3-3.3-5-6-5.2c-2.7,0-5,1.9-6.9,5.8
		c-2,3.8-3.5,8.7-4.7,14.7C262.5,301.8,261.8,308,261.5,314.6z M58.9,313.8c7.2-0.4,13.2-3.1,18.1-8.2c4.9-5,7.4-11,7.4-18
		c0-3.4-0.6-6.3-1.8-8.8c-1.2-2.5-3.5-3.7-7-3.7c-5,0-9,3.6-12.1,10.7C60.4,293,58.9,302.3,58.9,313.8z M190,288.9
		c0-3.1-0.1-6.1-0.4-9.1c-0.3-3-0.8-5.4-1.6-7.3c-0.8-1.9-2.1-2.8-3.8-2.8c-2.1,0-3.6,1-4.5,3c-0.9,2-1.5,4.3-1.8,6.8
		c-0.3,2.5-0.4,4.5-0.4,6c0,5.2,0.7,10.8,2.2,16.9c1.5,6.1,3.8,11.6,7.1,16.4C188.9,306,190,296.1,190,288.9z M340.9,258.8
		c1.4-4.9,2.1-9.4,2.1-13.3c0-1.7-0.4-3.6-1.2-5.5c-0.8-2-2.3-2.9-4.5-2.9c-2.3,0-4,1-5.1,2.9c-1.1,2-1.9,4.2-2.3,6.6
		c-0.4,2.1-0.5,4-0.5,5.6v1c0.1,8.3,2.3,15.1,6.7,20.3C337.9,268.7,339.5,263.8,340.9,258.8z M474.2,381.6
		c-4.8,3.7-10.1,7.5-16,11.4c-4.9,3.2-9.7,6.5-14.2,9.8c-4.5,3.3-8.3,6.8-11.2,10.4c-3,3.6-4.5,7.4-4.5,11.4c0,4.7,1.4,8.6,4.3,11.8
		c2.9,3.2,6.9,4.8,12,4.8c4.4,0,8.8-1.9,13.3-5.6c4.5-3.7,8.2-10,11.3-18.7C472.3,408.2,473.9,396.4,474.2,381.6z M613.1,222.2
		c-1.4-2-3-3.6-4.8-4.9c-2.2-1.6-4.8-2.4-7.8-2.4c-3.4,0-6.9,0.9-10.6,2.7c-3.7,1.8-7.4,4.1-11,6.7c-3.6,2.7-7,5.3-10.2,7.9
		l-2.5,1.9c-1.3,11.2-2.5,25.8-3.6,43.6c-1.1,17.8-1.7,36.3-1.7,55.4c0,7.4,0.5,13.4,1.4,18c1,4.6,2.4,6.9,4.5,6.9
		c1.6,0,4.3-2.8,7.9-8.4c3.7-5.6,7.2-11.6,10.6-18.1c3.4-6.4,5.9-11.3,7.5-14.5c2.9-5.7,5.1-10.2,6.6-13.4
		c0.1-5.7,0.4-12.3,0.9-19.9c0.6-8.4,1.8-17.2,3.4-26.4c1.6-9.2,3.8-18.2,6.6-27.1C611.1,227.5,612.1,224.8,613.1,222.2z
		 M981.8,381.6c-0.8,0.7-1.7,1.5-2.6,2.2c-5,3.9-10.2,8.4-15.6,13.3c-5.4,4.9-10,10.3-13.8,16.1c-3.8,5.8-5.8,11.9-5.8,18.3
		c0,8.5,4,12.7,11.9,12.7h0.3c6,0,10.9-2.9,14.6-8.6c3.7-5.7,6.4-13.3,8.2-22.7C980.7,403.6,981.6,393.1,981.8,381.6z M982.8,298.6
		l-0.5-0.5c-1.1-1.5-2.4-3.1-4-4.9c-1.6-1.8-3.4-3.3-5.4-4.7c-2-1.3-4.1-2-6.3-2c-3.7,0-6.8,2.4-9.3,7.3c-2.4,4.8-4.2,10.9-5.4,18.2
		c-1.2,7.3-1.8,14.4-1.8,21.4c0,7.6,0.6,14.2,1.8,19.7c1.2,5.6,2.9,8.4,5.2,8.4c2.8,0,5.6-2.5,8.4-7.6c2.7-5.1,5.3-11.2,7.6-18.3
		c2.3-7.1,4.3-14.1,6-20.9C980.7,307.9,982,302.5,982.8,298.6z"/>
	<path d="M280.1,494.1v112.7c0,1.5,0.8,2.3,2.3,2.5c2.6,0.1,4.4,0.5,5.5,1.1c2.1,1.2,3.1,2.9,3.1,5.2c0,2.9-2.4,4.4-7.3,4.4H253
		c-4.5,0-6.8-1.6-6.8-4.7c0-4,2.4-6,7.3-6c1.6,0,2.8-0.2,3.5-0.7c0.7-0.5,1-1.3,1-2.4V494.8c0-2-1-3.1-2.9-3.2
		c-2.7-0.1-4.6-0.5-5.7-1c-2.1-1.1-3.2-2.8-3.2-5.2c0-2.9,2.4-4.4,7.3-4.4h31c4.9,0,7.3,1.5,7.3,4.4c0,2.4-1.1,4.1-3.2,5.2
		c-1.1,0.5-3.1,0.9-6,1C280.9,491.7,280.1,492.5,280.1,494.1z M332,479.5c-10.3,0-18.6,2.9-24.8,8.8c-3.2,3-5.7,6.6-7.5,10.9
		c-2.5,6-3.7,12.8-3.7,20.4c0,11.1,2.9,21.1,8.8,30.2c4,6.3,10,13.3,17.9,21.1c2.9,2.9,5.5,5.6,7.9,8.2c5.3,5.9,7.9,11.4,7.9,16.5
		c0,8-3.6,11.9-10.9,11.9c-6.5,0-10.6-3.4-12.4-10.2c-0.8-2.9-1.2-5.7-1.2-8.4c0-4.6-1.8-6.8-5.5-6.8c-2,0-3.6,0.9-4.8,2.6
		c-1.2,1.7-1.8,3.8-1.8,6.3c0,8.9,1.9,16,5.8,21.2c4.9,6.3,11.9,9.5,21.1,9.5c10.5,0,18.5-3.2,24-9.6c4.2-4.9,6.3-11.1,6.3-18.6
		c0-8.2-3.1-16.2-9.3-24.1c-2.9-3.5-6-7-9.4-10.4c-8.2-8.1-14-15-17.4-20.7c-3.7-6.3-5.6-12.9-5.6-20c0-7.4,1.3-13.3,3.8-17.8
		c3-5.4,7.4-8.1,13.2-8.1c7.9,0,13.1,4.8,15.7,14.4c1.1,4.3,1.6,9,1.6,14.1c0,6.8-0.7,13.5-2.1,20.1c-0.2,0.9-0.3,1.8-0.3,2.7
		c0,3.4,1.7,5.1,5,5.1c3.7,0,6.4-3.4,7.9-10.2c1.2-4.9,1.7-10.8,1.7-17.7C364.3,493.2,353.5,479.5,332,479.5z M484.7,593.2
		c0,7.7-4.6,14.4-13.8,19.9c-9.2,5.6-21.5,8.3-37,8.3c-11.6,0-17.4-6.2-17.4-18.7V495.3c0-10.6,5.6-15.9,16.8-15.9
		c11.6,0,21.9,3.1,30.7,9.2c10.4,7.2,15.6,18.1,15.6,32.7c0,17.8-5.7,32.3-17,43.3c-1.8,1.8-2.7,3.3-2.7,4.3c0,1,1.2,1.8,3.6,2.4
		c5.2,1.4,9.5,3.4,13,6.1C481.9,581.7,484.7,587,484.7,593.2z M438.8,566.5c0,1.2,0.7,1.8,2.2,1.8c2.1,0,4.7-1.7,8-5.2
		c3.3-3.5,6.4-8.4,9.4-14.7c4-8.3,5.9-17,5.9-26.1c0-5.2-0.8-9.9-2.4-14.1c-2.4-6.3-6.2-10.5-11.5-12.6c-2.5-1-5.4-1.5-8.6-1.5
		c-2.1,0.1-3.1,1.1-3.1,3V566.5z M469.4,592.9c0-4-2.2-6.9-6.7-9c-4.5-2-10.5-3.1-18.2-3.1c-3.8,0-5.7,1.4-5.7,4.3v17.2
		c0,3,1.6,4.5,4.7,4.5c8.7,0,15.2-1.3,19.5-4C467.2,600.3,469.4,597,469.4,592.9z M554.3,608.6c-1.2-0.7-2.6-1.1-4.2-1.1
		c-2.4,0-4.7,0.1-7.1,0.3c-2.3,0.2-4.7,0.3-7.1,0.3c-7.5,0-12.5-1.9-15.1-5.6c-1.6-2.4-2.5-5.9-2.5-10.4V588c0-2.6,1.5-3.8,4.4-3.8
		l18.9,0.3c2.2,0,3.9-0.5,5.1-1.6c1.2-1,1.8-2.3,1.8-3.7c0-2.6-0.9-4.4-2.7-5.5c-1.5-0.9-3.8-1.4-6.9-1.4c-2.6,0-5.1,0.1-7.7,0.2
		c-2.6,0.1-5.2,0.2-7.7,0.2c-1.7,0-3-0.4-3.8-1.2c-0.9-0.8-1.3-2.6-1.3-5.4v-64.8c0-4.9,2.2-7.3,6.5-7.3c2.3,0,4.6,0,7,0.1
		c2.3,0.1,4.7,0.1,7,0.1c3.2,0,5.6-0.7,7.2-2c1.6-1.3,2.4-2.7,2.4-4.2c0-4-2.5-6.2-7.6-6.8c-2.1-0.2-4-0.4-5.7-0.4h-24.6
		c-7.2,0-11.6,3-13.3,8.8c-0.8,2.8-1.2,6.2-1.2,10.1v76.5c0,5.9,0.2,11.5,0.7,16.9c1.1,11.9,5.8,20,14,24.4
		c4.6,2.4,11.1,3.6,19.3,3.6c9.5,0,16.2-0.8,20.1-2.5c3.9-1.7,5.8-4,5.8-7C556.1,610.5,555.5,609.4,554.3,608.6z M618.6,483.3
		c-1.5-1-3.3-1.7-5.3-1.9c-2.1-0.2-4-0.4-5.7-0.4h-38.1c-1.7,0-3.6,0.1-5.7,0.4c-2.1,0.2-3.8,0.9-5.3,1.9c-1.5,1-2.2,2.7-2.2,4.9
		c0,1.5,0.8,2.8,2.3,4c1.6,1.2,3.8,1.8,6.8,1.8h9.9c1.4,0,2.1,0.7,2.1,2.2v109.3c0,4.4,0.4,7.7,1.1,9.9c0.5,1.5,1.2,2.7,2.3,3.7
		c1.5,1.6,3.9,2.4,7.3,2.4c7.7,0,11.6-5.1,11.6-15.2v-110c0-1.5,0.7-2.2,2.2-2.2h9.9c3,0,5.2-0.6,6.8-1.8c1.6-1.2,2.3-2.6,2.3-4
		C620.9,486,620.1,484.3,618.6,483.3z M691.5,483.3c-1.5-1-3.3-1.7-5.3-1.9c-2.1-0.2-4-0.4-5.7-0.4h-38.1c-1.7,0-3.6,0.1-5.7,0.4
		c-2.1,0.2-3.8,0.9-5.3,1.9c-1.5,1-2.2,2.7-2.2,4.9c0,1.5,0.8,2.8,2.3,4c1.6,1.2,3.8,1.8,6.8,1.8h9.9c1.4,0,2.1,0.7,2.1,2.2v109.3
		c0,4.4,0.4,7.7,1.1,9.9c0.5,1.5,1.2,2.7,2.3,3.7c1.5,1.6,3.9,2.4,7.3,2.4c7.7,0,11.6-5.1,11.6-15.2v-110c0-1.5,0.7-2.2,2.2-2.2h9.9
		c3,0,5.2-0.6,6.8-1.8c1.6-1.2,2.3-2.6,2.3-4C693.7,486,693,484.3,691.5,483.3z M757.6,608.6c-1.2-0.7-2.6-1.1-4.2-1.1
		c-2.4,0-4.7,0.1-7.1,0.3c-2.3,0.2-4.7,0.3-7.1,0.3c-7.5,0-12.5-1.9-15.1-5.6c-1.6-2.4-2.5-5.9-2.5-10.4V588c0-2.6,1.5-3.8,4.4-3.8
		l18.9,0.3c2.2,0,3.9-0.5,5.1-1.6c1.2-1,1.8-2.3,1.8-3.7c0-2.6-0.9-4.4-2.7-5.5c-1.5-0.9-3.8-1.4-6.9-1.4c-2.6,0-5.1,0.1-7.7,0.2
		c-2.6,0.1-5.2,0.2-7.7,0.2c-1.7,0-3-0.4-3.8-1.2c-0.9-0.8-1.3-2.6-1.3-5.4v-64.8c0-4.9,2.2-7.3,6.5-7.3c2.3,0,4.6,0,7,0.1
		c2.3,0.1,4.7,0.1,7,0.1c3.2,0,5.6-0.7,7.2-2c1.6-1.3,2.4-2.7,2.4-4.2c0-4-2.5-6.2-7.6-6.8c-2.1-0.2-4-0.4-5.7-0.4h-24.6
		c-7.2,0-11.6,3-13.3,8.8c-0.8,2.8-1.2,6.2-1.2,10.1v76.5c0,5.9,0.2,11.5,0.7,16.9c1.1,11.9,5.8,20,14,24.4
		c4.6,2.4,11.1,3.6,19.3,3.6c9.5,0,16.2-0.8,20.1-2.5c3.9-1.7,5.8-4,5.8-7C759.4,610.5,758.8,609.4,757.6,608.6z M831.4,614.5
		c0,2.3-0.7,4-2.1,5.2c-1.4,1.2-3.2,1.8-5.6,1.8c-4.1,0-8.4-3.5-12.9-10.5c-4.8-7.3-10.6-16.8-17.5-28.4c-1.3-1.6-2.1-2.4-2.4-2.4
		c-0.5,0-0.8,1.1-0.8,3.3v22.7c0,10.2-3.9,15.2-11.6,15.2c-3.4,0-5.9-0.8-7.3-2.3c-1.5-1.6-2.4-3.5-2.8-6c-0.4-2.4-0.5-5-0.5-7.7
		V495.3c0-10.6,5.3-15.9,15.9-15.9c12.2,0,22.7,3,31.7,9.1c10.4,7.2,15.6,18.1,15.6,32.7c0,10.6-1.8,20.4-5.5,29.2
		c-4.4,10.6-11,18.7-20,24.4c-0.5,0.3-0.7,0.7-0.7,1.1c0,0.6,2.2,3.5,6.5,8.6c1.6,1.9,3.2,3.8,4.6,5.7
		C826.2,603.3,831.4,611.4,831.4,614.5z M802.8,561.2c4.2-4.7,7.3-10.3,9.4-16.8c2.4-7.2,3.6-14.6,3.6-22.2c0-5.2-0.8-9.9-2.4-14.2
		c-3.5-9.3-10.2-14-20.1-14c-2.1,0.1-3.2,1.1-3.2,3v68c0,2.1,0.9,3.2,2.6,3.2C795.2,568.3,798.6,565.9,802.8,561.2z"/>
	<path d="M681,714.2c-1.2,0-2.2,0.9-3,2.6c-1.1,2.4-2.6,5.5-4.7,9.5c-0.7,1.3-2,3.9-3.8,7.6c-1.6,3.1-3.7,7.2-6.4,12.2
		c-2.7,5.1-5.5,9.8-8.2,14c-2.7,4.3-4.7,6.4-6,6.4c-0.7,0-1.1-0.8-1.1-2.4c0-2.7,0.3-5.9,0.9-9.8c0.6-3.8,1.3-7.9,2.1-12.1
		c0.9-4.5,1.6-8.9,2.3-13.2c0.7-4.3,1-8,1-11.3c0-3.2-0.4-6.2-1.3-8.9c-0.9-2.7-2.3-4.8-4.4-6.4c-2-1.6-4.7-2.4-8.1-2.4
		c-4,0-7.5,1.7-10.6,5c-3,3.3-5.7,7.5-7.8,12.6c-2.2,5.1-4,10.4-5.5,16c-1.5,5.6-2.7,10.7-3.6,15.3c-1.3-10-1.9-22-1.9-35.8
		c0-3.2,0-6.4,0.1-9.9c2.9-3.3,6.1-7.2,9.5-11.6c3.4-4.4,6.7-9.1,9.9-14c3.2-5,5.8-10.1,7.9-15.2c2.1-5.2,3.1-10.2,3.1-15
		c0-3.3-0.9-6-2.7-8.1c-1.8-2-4.3-3.1-7.3-3.1c-5.4,0-10,1.4-14,4.3c-4,2.9-7.4,6.7-10.3,11.5c-1,1.6-1.9,3.4-2.7,5.1
		c-1-1-2.1-1.9-3.3-2.6c-2.3-1.5-5-2.2-8-2.2c-3.2,0-6.7,0.8-10.4,2.5c-3.7,1.7-7.3,3.7-10.8,6.1c0.2-1.7,0.5-3.9,0.8-6.7
		c0.4-3,0.8-6,1.1-8.8c0.3-2.9,0.5-4.7,0.5-5.6c0-4.2-2.1-6.3-6.2-6.4c-2.2,0-4,0.5-5.3,1.5c-1.3,1-2.4,3-3.3,5.9
		c-0.6,2.3-1.3,5.4-2.1,9.6c-0.8,4.1-1.5,8.2-2.2,12.1c-0.7,4-1.1,6.8-1.4,8.5c-4,2.7-8.2,5.2-12.7,7.3c-4.5,2.1-9,3.1-13.5,3.1
		c-2.3,0-4.4-0.3-6.5-1c-0.1-3.7-0.8-6.1-2.3-7.4c-1.6-1.4-4.4-2.1-8.4-2.1c-7.4,0-11.2,3.7-11.2,11.1c0,3.5,0.8,6.1,2.5,7.7
		c1.6,1.6,4.4,2.4,8.2,2.4c3.5,0,6.3-0.9,8.3-2.6c1-0.9,1.8-2.1,2.3-3.6c2.3,0.7,4.7,1,7.2,1c3.9,0,8-0.6,12.4-1.9
		c4.3-1.3,8.6-2.9,12.6-4.9c-1.8,14.5-3,26.7-3.5,36.5c0,0,0,0,0,0.1c-1,2.1-2.5,5.2-4.5,9.1c-1.4,2.9-4,8.1-7.8,15.6
		c-2.9,5.5-5.7,10.6-8.6,15.3c-3.5,6-5.9,8.9-7.3,8.9c-1.3,0-1.9-4-1.9-12c0-7.1,0.2-14.8,0.6-23.1c0.4-8.3,0.6-14.5,0.6-18.7
		c0-2.4-1.1-4.1-3.2-5.2c-2.1-1.1-4.4-1.7-6.8-1.7c-4,0-6.7,1.2-8.1,3.7c-1.3,2.1-2,4.9-2.2,8.4c-0.5,1.2-1.2,2.7-2.1,4.5
		c-1.9,4-4.2,7-7,9.1c-2.8,2.1-6.3,3.1-10.4,3.1c-1.7,0-3.3-0.2-4.7-0.6c1.2-7.2,1.7-13.5,1.7-18.9c0-1.8-0.1-4.2-0.2-7
		c-0.1-2.9-0.5-5.7-1.1-8.5c-0.6-2.8-1.6-5.2-3.1-7.1c-1.5-1.9-3.5-2.9-6.1-2.9c-3,0-5.4,1.1-7.1,3.2c-1.7,2.1-2.9,4.7-3.6,7.6
		c-0.7,2.9-1,5.6-1,7.9c0,5.3,1,10.5,3.1,15.7c2,5.2,5.2,9.3,9.4,12.4c-0.8,4.8-1.8,9.3-3,13.5c-1.2,4.2-2.6,7.6-4.1,10.2
		c-1.6,2.6-3.3,4-5.2,4c-1.5,0-2.7-1.5-3.6-4.5c-0.9-3-1.5-6.7-1.8-11.2c-0.4-4.4-0.6-9-0.6-13.7c0-1.7-0.1-3.8-0.3-6.4
		c-0.2-2.6-0.6-5.2-1.2-7.8c-0.6-2.6-1.6-4.8-2.9-6.6c-1.3-1.8-3.1-2.7-5.5-2.7c-2.6,0-4.7,1.4-6.5,4.1c-1.8,2.7-3.3,6-4.6,10
		c-1.2,4-2.4,7.9-3.4,11.9c-0.9,3.8-1.9,7.1-3.1,9.9c-1.1,2.8-2.1,4.2-3,4.2c-1.5,0-2.5-2.1-3-6.3c-0.4-3.6-0.5-7.7-0.5-12.2v-3.6
		c0.1-6,0.3-11.3,0.5-15.9c0.2-2.9,0.3-4.9,0.3-5.9c0-2.4-1.1-4.2-3.2-5.3c-2.1-1.1-4.4-1.6-6.8-1.6c-4,0-6.7,1.2-8.1,3.7
		c-1.5,2.5-2.2,5.8-2.2,9.9c0,2.7,0.1,6.2,0.2,10.4c0.1,4.2,0.5,8.6,1,13.2c0.6,4.6,1.5,8.9,2.8,12.9c1.3,4,3,7.4,5.3,9.9
		c2.2,2.6,5.1,3.9,8.6,3.9c3,0,5.5-0.9,7.5-2.8c2-1.9,3.8-4.2,5.2-7.2c1.4-2.9,2.6-6,3.5-9.3c0.9-3.3,1.7-6.5,2.4-9.4
		c0.4-1.9,0.8-3.6,1.2-5.1c0,4,0.4,8.5,1.1,13.5c0.8,5,1.9,9.8,3.4,14.5c1.5,4.6,3.4,8.5,5.6,11.5c2.2,3,4.8,4.6,7.8,4.6
		c3.8,0,7.2-1.7,10.2-5.1c2.9-3.4,5.5-7.7,7.6-13c2.1-5.3,3.8-10.9,5.1-17c1.8,0.5,3.6,0.7,5.7,0.7c5.1,0,9.5-1.3,13.1-3.9
		c2.5-1.8,4.6-4,6.5-6.8c0.2,7.8,0.5,14.8,1,21.2c0.8,9,2.2,15.9,4.3,20.8c2.1,4.8,5.3,7.2,9.4,7.2c3.5,0,6.6-1.5,9.3-4.5
		c3.4-3.6,6.4-7.9,9-12.7c2.6-4.8,5-9.5,7.3-14l1.3-2.6c1.8-3.5,3.3-6.8,4.7-9.7c0.9-1.7,1.6-3.3,2.3-4.7c0.1,6.8,0.5,12.8,1.3,18
		c0.9,5.9,2.3,10.5,4.3,13.8c2,3.3,4.8,4.9,8.4,4.9c2.7,0,5.2-0.9,7.6-2.7c2.4-1.8,4.7-4,6.8-6.7c2.1-2.6,3.9-5.4,5.6-8.2
		c1.6-2.8,3-5.3,4.1-7.6c1.5-2.7,2.7-5.3,3.8-7.6c0.9-2,1.8-3.9,2.7-5.6c0.3,3,0.7,6.2,1.2,9.6c0.7,4.1,1.6,8,2.8,11.7
		c1.2,3.7,2.7,6.7,4.6,9.1c1.8,2.4,4,3.6,6.6,3.6c2.3,0,4.1-0.5,5.5-1.6c1.3-1.1,2.4-2.5,3.1-4.3c0.8-1.8,1.4-3.8,1.9-6
		c0.1-0.2,0.1-0.6,0.2-1c0.5-2.2,1.3-5.4,2.3-9.5c1-4.1,2.2-8.3,3.6-12.6c1.4-4.3,2.8-8.1,4.3-11.1c1.5-3.1,3-4.6,4.6-4.6
		c0.6,0,1,0.5,1.3,1.6c0.2,1,0.4,2.3,0.4,3.9c-0.1,2.7-0.5,7.1-1.5,13.4c-0.7,4.9-1.3,10.1-2,15.8c-0.6,5.7-1,11.1-1,16.1
		c0,3.5,0.4,6.6,1.2,9.4c0.8,2.8,2,5,3.6,6.6c1.6,1.6,3.8,2.5,6.5,2.5c2,0,3.7-0.5,5.2-1.5c1.4-1,2.6-2,3.6-3.1
		c2.5-2.6,5-6,7.5-10.3c3.7-6.7,6.8-12.6,9.4-17.6c2.4-4.6,4.9-9.3,7.3-14.2c1.2-2.3,2.3-4.5,3.3-6.5c1-2.1,2-4.1,3-5.9
		c0.4-0.7,0.8-1.6,1.2-2.5c0.4-0.9,0.6-1.7,0.6-2.2C683.7,715.1,682.8,714.2,681,714.2z M612.5,684c0.5-3.9,1.1-8.2,2.1-12.8
		c0.9-4.6,2.1-9,3.6-13.1c1.5-4.2,3.3-7.6,5.4-10.4c2.2-2.7,4.7-4.1,7.7-4.1c2.6,0,4,1.6,4.1,4.7c0,5-1.4,10.2-4.1,15.8
		c-2.7,5.5-5.9,10.8-9.5,15.9c-3.6,5.1-7.1,9.4-10.2,13.1C611.7,690.9,612,687.9,612.5,684z M469.9,714.2c0,4.3-0.3,9.2-0.9,14.7
		c-2.6-2.8-4.4-6.2-5.6-10.1c-1.2-3.9-1.8-7.7-1.8-11.4c0-1,0.1-2.3,0.2-4c0.2-1.7,0.5-3.2,1.2-4.5c0.6-1.3,1.6-2,3-2
		c1.3,0,2.3,1.1,2.8,3.2c0.5,2.2,0.9,4.5,1,7.2c0.1,1.7,0.1,3.2,0.1,4.4V714.2z M600.1,668.1c-1.9,5.9-3.3,11.9-4.4,18
		c-1.1,6.1-1.8,12-2.2,17.6c-0.4,5.1-0.6,9.5-0.6,13.3c-1,2.2-2.4,5.1-4.4,8.9c-1,2.1-2.7,5.3-5,9.6c-2.3,4.3-4.6,8.3-7.1,12
		c-2.4,3.7-4.2,5.6-5.3,5.6c-1.3,0-2.3-1.5-3-4.6c-0.6-3.1-1-7.1-1-12c0-12.7,0.4-25,1.1-36.9c0.8-11.9,1.6-21.5,2.4-29l1.6-1.3
		c2.1-1.8,4.4-3.5,6.8-5.3c2.4-1.8,4.8-3.3,7.3-4.5c2.5-1.2,4.8-1.8,7.1-1.8c2,0,3.7,0.5,5.2,1.6c1.2,0.9,2.3,2,3.2,3.3
		C601.3,664.5,600.7,666.3,600.1,668.1z"/>
	<path fill="#F7931E" d="M275.8,711.9c0,15.3,0,30.5,0,45.8c0,9.6-4.9,16.4-12.8,18c-8.7,1.8-15.6-2.4-19.5-11.7
		c-0.1-0.3-0.4-0.5-0.6-0.7c0-36.6,0-73.3,0-109.9c2.5-6,6-11,12.9-12.4c10.7-2.2,19.8,5.3,19.9,16.6
		C275.9,675.6,275.8,693.8,275.8,711.9z M151.1,499.7c-0.2-7.1-4.4-12.6-10.9-14.9c-11.5-4-21.8,4.4-21.8,18c0,96.1,0,192.1,0,288.2
		c0,2.2,0.2,4.5,0.7,6.7c1.7,7,7.8,12,14.9,12.3c7.5,0.3,13.8-4,16.3-11c1.1-3,0.9-6,0.9-9c0-47.6,0-95.1,0-142.7
		c0-40.8,0-81.6,0-122.4C151.2,516.4,151.4,508.1,151.1,499.7z M216.8,588.2c0-2.2,0-4.5-0.2-6.7c-1.1-9.4-10.2-15.9-19.5-13.8
		c-8.6,1.9-13.1,8.4-13.1,19.2c0,63.9,0,127.8,0,191.8c0,2.4,0.2,4.8,0.7,7.2c1.9,8.5,10.7,13.9,19.1,12c8.5-1.9,13-8.1,13-18.2
		c0-32.3,0-64.6,0-96.8C216.8,651.2,216.8,619.7,216.8,588.2z M318.5,654.7c-7.7-0.1-13.8,5.8-13.8,14.1c-0.2,26.3-0.1,52.6,0,79
		c0,3.3,0.9,6.3,3,9c3.5,4.5,9.2,6.3,14.7,4.6c5.5-1.7,9.4-6.2,9.5-12.1c0.2-13.6,0.1-27.3,0.1-40.9c0,0,0.1,0,0.1,0
		c0-13.1,0.1-26.2,0-39.3C331.8,660.6,326.2,654.8,318.5,654.7z M368.5,673.7c-5.5-0.1-9.9,4.2-9.9,10.1c-0.1,18.9-0.1,37.8,0,56.7
		c0,2.3,0.6,4.5,2.1,6.4c2.5,3.2,6.6,4.5,10.6,3.3c4-1.2,6.7-4.4,6.8-8.7c0.1-9.8,0-19.6,0-29.4c0,0,0,0,0.1,0
		c0-9.4,0.1-18.8,0-28.2C378.1,678,374.1,673.8,368.5,673.7z M828.2,640.9c-10.7-2.2-19.8,5.3-19.9,16.6c-0.1,18.2,0,36.3,0,54.5
		c0,15.3,0,30.5,0,45.8c0,9.6,4.9,16.4,12.8,18c8.7,1.8,15.6-2.4,19.5-11.7c0.1-0.3,0.4-0.5,0.6-0.7c0-36.6,0-73.3,0-109.9
		C838.6,647.3,835,642.3,828.2,640.9z M943.7,484.8c-6.5,2.3-10.8,7.8-10.9,14.9c-0.2,8.4-0.1,16.7-0.1,25.1c0,40.8,0,81.6,0,122.4
		c0,47.5,0,95.1,0,142.7c0,3-0.2,6.1,0.9,9.1c0.4,1,0.8,2,1.4,3c8.9-3,19-4.8,30-5.3c0.3-1.8,0.5-3.7,0.5-5.6
		c0-96.1,0-192.1,0-288.2C965.5,489.2,955.3,480.8,943.7,484.8z M886.9,567.6c-9.3-2.1-18.4,4.4-19.5,13.8c-0.3,2.2-0.2,4.5-0.2,6.7
		c0,31.5,0,63,0,94.4c0,32.3,0,64.6,0,96.8c0,10.1,4.5,16.3,13,18.2c8.5,1.9,17.2-3.5,19.1-12c0.5-2.3,0.7-4.8,0.7-7.2
		c0-63.9,0-127.8,0-191.8C900,576.1,895.5,569.6,886.9,567.6z M765.5,654.7c-7.7,0.1-13.3,6-13.4,14.5c-0.1,13.1,0,26.2,0,39.3
		c0,0,0.1,0,0.1,0c0,13.6-0.1,27.3,0.1,40.9c0.1,5.9,3.9,10.4,9.5,12.1c5.5,1.7,11.2-0.1,14.7-4.6c2.1-2.6,2.9-5.7,3-9
		c0-26.3,0.1-52.6,0-79C779.3,660.5,773.1,654.6,765.5,654.7z M715.5,673.7c-5.6,0.1-9.6,4.3-9.6,10.4c-0.1,9.4,0,18.8,0,28.2
		c0,0,0,0,0.1,0c0,9.8-0.1,19.6,0,29.4c0.1,4.2,2.8,7.4,6.8,8.7c3.9,1.2,8-0.1,10.6-3.3c1.5-1.9,2.1-4.1,2.1-6.4
		c0-18.9,0.1-37.8,0-56.7C725.3,677.9,721,673.6,715.5,673.7z"/>
	<path d="M279.3,815.1c3.6,7.3,5.3,16.3,5.3,26.9v249.6c0,17.4-6.3,26.1-18.9,26.1c-6.4,0-10.7-2.3-13-6.8c-2.3-4.6-3.5-11-3.5-19.3
		c0-71.1,0.7-124.8,2.2-161c0.7-18.4,1.1-32.2,1.1-41.4c0-4.1-0.7-6.1-2.2-6.1c-1.5,0-3.3,3.3-5.3,9.8
		c-16.2,50.3-36.1,100.7-59.7,151.2c-3.6,7.6-8.7,11.4-15.4,11.4c-7.3,0-12.8-4.1-16.5-12.2c-15.9-35.6-35.3-88.6-58.1-159
		c-2.4-7.3-4.2-11-5.3-11c-0.6,0-0.9,2-0.9,6.1c0,4.8,0.1,8.8,0.4,12.2c0.3,3.4,0.7,10.3,1.1,20.6c2.5,52.6,3.8,110.4,3.8,173.2
		c0,10.5-2.4,18.5-7.2,24c-4.8,5.5-11.9,8.3-21.3,8.3c-14.3,0-22.5-5.9-24.7-17.8c-0.9-5.2-1.3-10.5-1.3-16.1v-242
		c0-27.9,10.2-41.8,30.5-41.8c18.8,0,32.1,10.7,39.9,32c14.4,39.5,26.3,72.6,35.6,99.6c6.1,17.7,12,34.6,17.8,50.8
		c22-51.8,41.8-103.9,59.5-156.3c3.3-9.7,7.7-16.4,13.4-20.3c5.6-3.9,11.2-5.8,16.7-5.8C265.5,800,274.2,805.1,279.3,815.1z
		 M498.6,800c-6.2,0-10.5,2.2-12.8,6.7c-2.3,4.5-3.5,11-3.5,19.4v181.6c0,51.4-14,77.1-42.1,77.1c-11.3,0-20-3.1-26.1-9.4
		c-6.7-6.9-11.1-17.7-13.4-32.2c-1.6-10.5-2.4-22.7-2.4-36.5V835.9c0-13.5-3.7-23.1-11.1-29c-4.2-3.3-9.9-4.9-17.4-4.9
		c-14.3,0-22.4,6.2-24.5,18.6c-0.9,5.4-1.3,11.1-1.3,16.9v163.9c0,34,5.1,60.4,15.4,79.2c13.7,24.8,37,37.1,69.9,37.1
		c58.8,0,88.2-36.8,88.2-110.4V826.1C517.5,808.7,511.2,800,498.6,800z M644.4,800c-25.2,0-45.4,6.5-60.6,19.6
		c-7.9,6.7-14,14.8-18.3,24.3c-6.1,13.5-9.1,28.7-9.1,45.7c0,24.8,7.2,47.3,21.6,67.5c9.8,14,24.3,29.7,43.6,47.1
		c7,6.4,13.4,12.5,19.4,18.4c12.9,13.2,19.4,25.5,19.4,36.9c0,17.8-8.8,26.7-26.5,26.7c-15.9,0-26-7.6-30.3-22.9
		c-1.9-6.4-2.9-12.7-2.9-18.8c0-10.2-4.5-15.3-13.4-15.3c-4.9,0-8.8,1.9-11.7,5.7c-2.9,3.8-4.3,8.5-4.3,14.1
		c0,20,4.7,35.8,14.3,47.3c11.9,14.2,29,21.2,51.4,21.2c25.5,0,45.1-7.1,58.6-21.4c10.2-10.9,15.4-24.8,15.4-41.6
		c0-18.4-7.6-36.3-22.7-53.9c-7-7.9-14.6-15.6-22.9-23.3c-20-18.1-34.2-33.5-42.5-46.3c-9.1-14-13.6-28.9-13.6-44.7
		c0-16.5,3.1-29.7,9.4-39.8c7.4-12.1,18.2-18.2,32.3-18.2c19.3,0,32.1,10.7,38.3,32.2c2.7,9.7,4,20.2,4,31.6
		c0,15.2-1.7,30.2-5.1,44.9c-0.4,2-0.7,4.1-0.7,6.1c0,7.6,4.1,11.4,12.2,11.4c9.1,0,15.5-7.6,19.4-22.9c2.8-11,4.2-24.2,4.2-39.6
		C723.2,830.8,697,800,644.4,800z M825.5,827.2c7.1-0.3,12-1,14.7-2.2c5.2-2.4,7.8-6.3,7.8-11.6c0-6.5-5.9-9.8-17.8-9.8h-75.7
		c-11.9,0-17.8,3.3-17.8,9.8c0,5.3,2.6,9.2,7.8,11.6c2.5,1.2,7.1,2,13.8,2.2c4.7,0.3,7.1,2.7,7.1,7.1V1083c0,2.4-0.8,4.2-2.4,5.3
		c-1.6,1.1-4.5,1.6-8.5,1.6c-11.9,0-17.8,4.5-17.8,13.5c0,7.1,5.5,10.6,16.5,10.6h74.8c11.9,0,17.8-3.3,17.8-9.8
		c0-5.2-2.5-9-7.6-11.6c-2.5-1.4-7-2.2-13.4-2.4c-3.7-0.3-5.6-2.1-5.6-5.5v-252C819.2,829.3,821.3,827.4,825.5,827.2z
		 M1043.2,1032.6c-2.4-2-5.2-3.1-8.5-3.1c-7.4,0-12.2,4.2-14.3,12.4c-7.4,29.4-22.9,44.1-46.5,44.1c-16.3,0-28.9-12.2-37.6-36.5
		c-9.5-26.4-14.3-60.5-14.3-102.4c0-20.7,1.7-39.4,5.1-56.3c8.2-41.5,26-62.2,53.4-62.2c14,0,24.2,8,30.7,24.1
		c4.6,10.9,6.9,24.1,6.9,39.8c0,10.6-0.7,19.9-2,27.8c-1,6.3-1.6,12-1.6,17.1c0,6.1,1.1,10.6,3.5,13.4c2.3,2.8,6,4.2,11,4.2
		c7.7,0,13.1-6.1,16.3-18.4c1.9-7.9,2.9-20.7,2.9-38.4c0-28-5.1-50.5-15.4-67.5c-12.5-20.4-32.9-30.6-61.2-30.6
		c-19.1,0-35.1,3.5-47.9,10.6c-38.9,21.4-58.3,70.1-58.3,146.1c0,56.2,10.4,98.4,31.2,126.7c16.8,22.9,40.3,34.3,70.6,34.3
		c23.3,0,42.4-8.2,57.2-24.5c14.8-16.3,22.3-33.6,22.3-51.8C1046.8,1037.6,1045.6,1034.7,1043.2,1032.6z"/>
</g>
</svg>
